<svg xmlns="http://www.w3.org/2000/svg" xmlns:xlink="http://www.w3.org/1999/xlink" width="608" height="355"><source><![CDATA[Title: Add Items in the ShoppingCart
Customer->ShoppingCart: addItem(productId, quantity)
ShoppingCart-->Customer: Error (e.g. Out of Stock)
ShoppingCart->Item: verifyItem()
Item->ShoppingCart: Verification Status
ShoppingCart-->Customer: Operation success/fail]]></source><desc>Add Items in the ShoppingCart</desc><defs><marker id="markerArrowBlock" markerHeight="5" markerWidth="5" orient="auto" refX="5" refY="2.5" viewBox="0 0 5 5"><path d="M 0 0 L 5 2.5 L 0 5 z"/></marker><marker id="markerArrowOpen" markerHeight="16" markerWidth="4" orient="auto" refX="9.6" refY="8" viewBox="0 0 9.6 16"><path d="M 9.6,8 1.92,16 0,13.7 5.76,8 0,2.286 1.92,0 9.6,8 z"/></marker></defs><g class="title"><rect width="288.438" height="28.219" x="10" y="10" fill="#fff" stroke="#000" style="stroke-width:2"/><text x="15" y="30" style="font-size:16px;font-family:&quot;Andale Mono&quot;,monospace"><tspan x="15">Add Items in the ShoppingCart</tspan></text></g><g class="actor"><rect width="96.813" height="38.219" x="10" y="48.219" fill="#fff" stroke="#000" style="stroke-width:2"/><text x="20" y="73.328" style="font-size:16px;font-family:&quot;Andale Mono&quot;,monospace"><tspan x="20">Customer</tspan></text></g><g class="actor"><rect width="96.813" height="38.219" x="10" y="297.313" fill="#fff" stroke="#000" style="stroke-width:2"/><text x="20" y="322.422" style="font-size:16px;font-family:&quot;Andale Mono&quot;,monospace"><tspan x="20">Customer</tspan></text></g><line x1="58.406" x2="58.406" y1="86.438" y2="297.313" fill="none" stroke="#000" style="stroke-width:2"/><g class="actor"><rect width="135.219" height="38.219" x="279.641" y="48.219" fill="#fff" stroke="#000" style="stroke-width:2"/><text x="289.641" y="73.219" style="font-size:16px;font-family:&quot;Andale Mono&quot;,monospace"><tspan x="289.641">ShoppingCart</tspan></text></g><g class="actor"><rect width="135.219" height="38.219" x="279.641" y="297.313" fill="#fff" stroke="#000" style="stroke-width:2"/><text x="289.641" y="322.313" style="font-size:16px;font-family:&quot;Andale Mono&quot;,monospace"><tspan x="289.641">ShoppingCart</tspan></text></g><line x1="347.25" x2="347.25" y1="86.438" y2="297.313" fill="none" stroke="#000" style="stroke-width:2"/><g class="actor"><rect width="58.406" height="38.219" x="520.469" y="48.219" fill="#fff" stroke="#000" style="stroke-width:2"/><text x="530.469" y="73.328" style="font-size:16px;font-family:&quot;Andale Mono&quot;,monospace"><tspan x="530.469">Item</tspan></text></g><g class="actor"><rect width="58.406" height="38.219" x="520.469" y="297.313" fill="#fff" stroke="#000" style="stroke-width:2"/><text x="530.469" y="322.422" style="font-size:16px;font-family:&quot;Andale Mono&quot;,monospace"><tspan x="530.469">Item</tspan></text></g><line x1="549.672" x2="549.672" y1="86.438" y2="297.313" fill="none" stroke="#000" style="stroke-width:2"/><g class="signal"><text x="68.406" y="117.328" style="font-size:16px;font-family:&quot;Andale Mono&quot;,monospace"><tspan x="68.406">addItem(productId, quantity)</tspan></text><line x1="58.406" x2="347.25" y1="124.656" y2="124.656" fill="none" stroke="#000" style="stroke-width:2;marker-end:url(#markerArrowBlock)"/></g><g class="signal"><text x="82.813" y="155.547" style="font-size:16px;font-family:&quot;Andale Mono&quot;,monospace"><tspan x="82.813">Error (e.g. Out of Stock)</tspan></text><line x1="347.25" x2="58.406" y1="162.875" y2="162.875" fill="none" stroke="#000" style="stroke-width:2;stroke-dasharray:6,2;marker-end:url(#markerArrowBlock)"/></g><g class="signal"><text x="390.852" y="193.766" style="font-size:16px;font-family:&quot;Andale Mono&quot;,monospace"><tspan x="390.852">verifyItem()</tspan></text><line x1="347.25" x2="549.672" y1="201.094" y2="201.094" fill="none" stroke="#000" style="stroke-width:2;marker-end:url(#markerArrowBlock)"/></g><g class="signal"><text x="357.25" y="232.094" style="font-size:16px;font-family:&quot;Andale Mono&quot;,monospace"><tspan x="357.25">Verification Status</tspan></text><line x1="549.672" x2="347.25" y1="239.094" y2="239.094" fill="none" stroke="#000" style="stroke-width:2;marker-end:url(#markerArrowBlock)"/></g><g class="signal"><text x="97.211" y="269.984" style="font-size:16px;font-family:&quot;Andale Mono&quot;,monospace"><tspan x="97.211">Operation success/fail</tspan></text><line x1="347.25" x2="58.406" y1="277.313" y2="277.313" fill="none" stroke="#000" style="stroke-width:2;stroke-dasharray:6,2;marker-end:url(#markerArrowBlock)"/></g></svg>